<svg width="16" height="16" viewBox="0 0 16 16" fill="none" xmlns="http://www.w3.org/2000/svg">
<path d="M14.354 4.85372L6.35403 12.8537C6.30759 12.9002 6.25245 12.9371 6.19175 12.9623C6.13105 12.9874 6.06599 13.0004 6.00028 13.0004C5.93457 13.0004 5.86951 12.9874 5.80881 12.9623C5.74811 12.9371 5.69296 12.9002 5.64653 12.8537L2.14653 9.35372C2.05271 9.2599 2 9.13265 2 8.99997C2 8.86729 2.05271 8.74004 2.14653 8.64622C2.24035 8.5524 2.3676 8.49969 2.50028 8.49969C2.63296 8.49969 2.76021 8.5524 2.85403 8.64622L6.00028 11.7931L13.6465 4.14622C13.7403 4.0524 13.8676 3.99969 14.0003 3.99969C14.133 3.99969 14.2602 4.0524 14.354 4.14622C14.4478 4.24004 14.5006 4.36729 14.5006 4.49997C14.5006 4.63265 14.4478 4.7599 14.354 4.85372Z" fill="#FFCC32"/>
</svg>
