<svg width="160" height="64" viewBox="0 0 160 64" fill="none" xmlns="http://www.w3.org/2000/svg">
<path fill-rule="evenodd" clip-rule="evenodd" d="M36.1624 17.3998L28.6731 21.9499C27.8134 22.4715 26.682 22.1974 26.1582 21.3356L21.902 14.3302C21.3782 13.4706 21.6544 12.3391 22.5163 11.8153L30.0056 7.26517C30.8653 6.74143 31.9968 7.01766 32.5205 7.87952L36.7768 14.8849C37.2983 15.7445 37.0243 16.876 36.1624 17.3998Z" fill="#FFCC32"/>
<path fill-rule="evenodd" clip-rule="evenodd" d="M49.3628 23.2162L43.953 26.5023C43.332 26.8802 42.5144 26.6813 42.1365 26.0581L39.0625 20.9974C38.6846 20.3765 38.8835 19.5588 39.5067 19.1809L44.9165 15.8948C45.5375 15.5169 46.3552 15.7158 46.7331 16.339L49.807 21.3996C50.1849 22.0206 49.986 22.8383 49.3628 23.2162Z" fill="#FFCC32"/>
<mask id="mask0_10230_10171" style="mask-type:luminance" maskUnits="userSpaceOnUse" x="38" y="15" width="12" height="12">
<path d="M49.3628 23.2162L43.953 26.5023C43.332 26.8802 42.5144 26.6813 42.1365 26.0581L39.0625 20.9974C38.6846 20.3765 38.8835 19.5588 39.5067 19.1809L44.9165 15.8948C45.5375 15.5169 46.3552 15.7158 46.7331 16.339L49.807 21.3996C50.1849 22.0206 49.986 22.8383 49.3628 23.2162Z" fill="white"/>
</mask>
<g mask="url(#mask0_10230_10171)">
<path d="M50.1817 15.5191H38.6836V26.8802H50.1817V15.5191Z" fill="#FFCC32"/>
</g>
<path fill-rule="evenodd" clip-rule="evenodd" d="M49.4242 36.659L45.0928 39.291C44.5956 39.5937 43.9414 39.4346 43.6387 38.9352L41.1769 34.8822C40.8741 34.385 41.0332 33.7309 41.5327 33.4281L45.864 30.7961C46.3613 30.4934 47.0154 30.6525 47.3182 31.1519L49.78 35.2049C50.0827 35.7021 49.9214 36.3562 49.4242 36.659Z" fill="#FFCC32"/>
<mask id="mask1_10230_10171" style="mask-type:luminance" maskUnits="userSpaceOnUse" x="41" y="30" width="9" height="10">
<path d="M49.4242 36.659L45.0928 39.291C44.5956 39.5937 43.9414 39.4346 43.6387 38.9352L41.1769 34.8822C40.8741 34.385 41.0332 33.7309 41.5327 33.4281L45.864 30.7961C46.3613 30.4934 47.0154 30.6525 47.3182 31.1519L49.78 35.2049C50.0827 35.7021 49.9214 36.3562 49.4242 36.659Z" fill="white"/>
</mask>
<g mask="url(#mask1_10230_10171)">
<path d="M50.0797 30.4934H40.8711V39.5938H50.0797V30.4934Z" fill="#FFCC32"/>
</g>
<path fill-rule="evenodd" clip-rule="evenodd" d="M44.5994 45.6621L42.2149 47.1118C41.9409 47.2775 41.5807 47.1913 41.4149 46.9173L40.0603 44.6875C39.8945 44.4135 39.9829 44.0533 40.2547 43.8875L42.6392 42.4379C42.9132 42.2721 43.2735 42.3583 43.4392 42.6323L44.7939 44.8621C44.9596 45.1361 44.8712 45.4963 44.5994 45.6621Z" fill="#FFCC32"/>
<mask id="mask2_10230_10171" style="mask-type:luminance" maskUnits="userSpaceOnUse" x="39" y="42" width="6" height="6">
<path d="M44.5994 45.6621L42.2149 47.1118C41.9409 47.2775 41.5807 47.1913 41.4149 46.9173L40.0603 44.6875C39.8945 44.4135 39.9829 44.0533 40.2547 43.8875L42.6392 42.4379C42.9132 42.2721 43.2735 42.3583 43.4392 42.6323L44.7939 44.8621C44.9596 45.1361 44.8712 45.4963 44.5994 45.6621Z" fill="white"/>
</mask>
<g mask="url(#mask2_10230_10171)">
<path d="M44.9601 42.2699H39.8906V47.2775H44.9601V42.2699Z" fill="#FFCC32"/>
</g>
<path fill-rule="evenodd" clip-rule="evenodd" d="M17.9061 45.229L25.4927 40.8468C26.3634 40.3429 27.4883 40.6435 27.9921 41.5164L32.0937 48.6146C32.5975 49.4853 32.297 50.6101 31.4241 51.1139L23.8375 55.4962C22.9668 56 21.842 55.6995 21.3381 54.8266L17.2365 47.7284C16.7327 46.8577 17.0332 45.7329 17.9061 45.229Z" fill="#FFCC32"/>
<mask id="mask3_10230_10171" style="mask-type:luminance" maskUnits="userSpaceOnUse" x="16" y="40" width="17" height="16">
<path d="M17.9061 45.229L25.4927 40.8468C26.3634 40.3429 27.4883 40.6435 27.9921 41.5164L32.0937 48.6146C32.5975 49.4853 32.297 50.6101 31.4241 51.1139L23.8375 55.4962C22.9668 56 21.842 55.6995 21.3381 54.8266L17.2365 47.7284C16.7327 46.8577 17.0332 45.7329 17.9061 45.229Z" fill="white"/>
</mask>
<g mask="url(#mask3_10230_10171)">
<path d="M32.5992 40.3429H16.7344V56H32.5992V40.3429Z" fill="#FFCC32"/>
</g>
<path fill-rule="evenodd" clip-rule="evenodd" d="M4.84707 39.1871L10.3232 36.0358C10.953 35.6734 11.764 35.8899 12.1265 36.5175L15.0855 41.618C15.4479 42.2434 15.2314 43.0522 14.6015 43.4146L9.12543 46.5637C8.49561 46.9261 7.68457 46.7096 7.32215 46.082L4.3631 40.9815C4.00068 40.3539 4.21725 39.5473 4.84707 39.1849" fill="#FFCC32"/>
<mask id="mask4_10230_10171" style="mask-type:luminance" maskUnits="userSpaceOnUse" x="4" y="35" width="12" height="12">
<path d="M4.84707 39.1871L10.3232 36.0358C10.953 35.6734 11.764 35.8899 12.1265 36.5175L15.0855 41.618C15.4479 42.2434 15.2314 43.0522 14.6015 43.4146L9.12543 46.5637C8.49561 46.9261 7.68457 46.7096 7.32215 46.082L4.3631 40.9815C4.00068 40.3539 4.21725 39.5473 4.84707 39.1849" fill="white"/>
</mask>
<g mask="url(#mask4_10230_10171)">
<path d="M15.4495 35.6756H4V46.9262H15.4495V35.6756Z" fill="#FFCC32"/>
</g>
<path fill-rule="evenodd" clip-rule="evenodd" d="M5.09061 25.7266L9.47725 23.2272C9.98111 22.94 10.6308 23.1123 10.9225 23.6073L13.2937 27.6537C13.5832 28.1509 13.4109 28.7918 12.907 29.079L8.52037 31.5762C8.01651 31.8635 7.3668 31.6911 7.0751 31.1939L4.70388 27.1498C4.41217 26.6526 4.58675 26.0117 5.09061 25.7244" fill="#FFCC32"/>
<mask id="mask5_10230_10171" style="mask-type:luminance" maskUnits="userSpaceOnUse" x="4" y="23" width="10" height="9">
<path d="M5.09061 25.7266L9.47725 23.2272C9.98111 22.94 10.6308 23.1123 10.9225 23.6073L13.2937 27.6537C13.5832 28.1509 13.4109 28.7918 12.907 29.079L8.52037 31.5762C8.01651 31.8635 7.3668 31.6911 7.0751 31.1939L4.70388 27.1498C4.41217 26.6526 4.58675 26.0117 5.09061 25.7244" fill="white"/>
</mask>
<g mask="url(#mask5_10230_10171)">
<path d="M13.5834 22.94H4.41016V31.8636H13.5834V22.94Z" fill="#FFCC32"/>
</g>
<path fill-rule="evenodd" clip-rule="evenodd" d="M10.3883 16.9688L12.4501 15.7954C12.6866 15.6606 12.9916 15.7401 13.1286 15.9744L14.2424 17.8749C14.3794 18.1069 14.2976 18.4097 14.0612 18.5445L11.9993 19.7179C11.7629 19.8527 11.4557 19.7732 11.3209 19.5389L10.2071 17.6384C10.0701 17.4042 10.1518 17.1036 10.3883 16.9688Z" fill="#FFCC32"/>
<mask id="mask6_10230_10171" style="mask-type:luminance" maskUnits="userSpaceOnUse" x="10" y="15" width="5" height="5">
<path d="M10.3883 16.9688L12.4501 15.7954C12.6866 15.6606 12.9916 15.7401 13.1286 15.9744L14.2424 17.8749C14.3794 18.1069 14.2976 18.4097 14.0612 18.5445L11.9993 19.7179C11.7629 19.8527 11.4557 19.7732 11.3209 19.5389L10.2071 17.6384C10.0701 17.4042 10.1518 17.1036 10.3883 16.9688Z" fill="white"/>
</mask>
<g mask="url(#mask6_10230_10171)">
<path d="M14.3796 15.6605H10.0703V19.8527H14.3796V15.6605Z" fill="#FFCC32"/>
</g>
<path d="M108.776 31.9232H101.379L98.9349 28.2835H106.966V26.8117H101.492C100.992 26.8117 100.561 26.6305 100.201 26.2681C99.8388 25.9079 99.6576 25.4747 99.6576 24.9819V18.7809H103.322V23.1698H106.966V18.0561H99.6576V16.2263C99.6576 15.7445 99.8388 15.3202 100.201 14.96C100.559 14.5976 100.992 14.4164 101.492 14.4164H110.605V30.0868C110.605 30.584 110.424 31.0171 110.062 31.3773C109.704 31.7398 109.271 31.921 108.776 31.921M87.2446 26.8117V18.7832H90.9086V26.8117H87.2446ZM94.5483 26.8117V18.0561H87.2446V14.4164H96.3582C96.8532 14.4164 97.2864 14.5888 97.6444 14.9357C98.0068 15.2827 98.188 15.7114 98.188 16.2263V26.8095H94.5483V26.8117ZM76.6791 26.8117C76.1819 26.8117 75.7531 26.6305 75.3907 26.2681C75.0261 25.9079 74.8471 25.4747 74.8471 24.9753V20.6152C74.8471 20.1179 75.0283 19.6848 75.3907 19.3268C75.7554 18.9644 76.1819 18.7809 76.6813 18.7809H78.9906L81.4348 22.4206H78.5155V23.1698H82.1552V18.7809H85.7949V26.8095H76.6813L76.6791 26.8117ZM74.8471 18.0561L77.2912 14.4164H83.9607C84.4756 14.4164 84.9109 14.5932 85.2601 14.9468C85.6159 15.2981 85.7927 15.7269 85.7927 16.2263V18.0561H74.8449H74.8471ZM62.4297 26.8117V12.2242H66.0694V26.8117H62.4297ZM123.001 25.7112H123.018V27.2935H124.565V29.7398H120.574V26.8139H113.887C113.394 26.8139 112.961 26.6327 112.603 26.2703C112.241 25.9123 112.06 25.4791 112.06 24.9797V14.4208H115.724V23.1742H119.363V14.4186H123.003V25.7134L123.001 25.7112ZM71.6604 26.8117H66.7964V23.172H74.1046L71.6604 26.8117Z" fill="white"/>
<path d="M153.541 50.5172H146.122L143.683 46.8775H149.923L145.218 42.4887H150.465C151.643 43.5008 152.82 44.5041 153.994 45.5008C154.9 46.4046 155.351 47.1074 155.351 47.6002V48.6897C155.351 49.1427 155.159 49.5582 154.776 49.9449C154.392 50.3272 153.976 50.5195 153.541 50.5195M144.403 41.7616V39.9318C144.403 39.4501 144.584 39.0236 144.947 38.6656C145.305 38.3032 145.738 38.1219 146.237 38.1219H152.907L155.351 41.7616H144.403ZM140.401 50.5172H133.115C132.622 50.5172 132.189 50.336 131.831 49.9736C131.468 49.6156 131.285 49.1825 131.285 48.6875V42.4865H134.949V46.8753H138.589V42.4865H142.228V48.6875C142.228 49.1825 142.047 49.6156 141.685 49.9736C141.325 50.336 140.894 50.5172 140.399 50.5172H140.401ZM131.285 41.7616V39.9318C131.285 39.4501 131.466 39.0236 131.831 38.6656C132.189 38.3032 132.622 38.1219 133.115 38.1219H140.401C140.909 38.1219 141.347 38.2987 141.698 38.6545C142.054 39.0059 142.231 39.4346 142.231 39.9318V41.7616H131.287H131.285ZM115.973 50.5172V42.4887H119.637V50.5172H115.973ZM121.084 50.5172V42.4887H124.724V50.5172H121.084ZM126.193 50.5172V41.7616H115.973V38.1219H128.025C128.523 38.1219 128.951 38.2987 129.303 38.6545C129.659 39.0059 129.835 39.4346 129.835 39.9318V50.515H126.196L126.193 50.5172ZM112.081 50.5172H104.667C104.17 50.5172 103.737 50.336 103.376 49.9736C103.014 49.6156 102.833 49.1825 102.833 48.683V39.9318C102.833 39.4501 103.014 39.0236 103.376 38.6656C103.737 38.3032 104.167 38.1219 104.667 38.1219H111.971C112.468 38.1219 112.894 38.2987 113.248 38.6545C113.604 39.0059 113.78 39.4346 113.78 39.9318V41.7616H106.497V46.8775H114.525L112.081 50.5172ZM111.971 46.1284H109.661L107.217 42.4887H113.776V44.3207C113.776 44.8179 113.601 45.2466 113.248 45.598C112.892 45.9538 112.468 46.1306 111.971 46.1306V46.1284ZM94.8019 50.5172V41.7616H93.3323V38.1219H94.8019V33.7331L98.4416 36.1772V50.5172H94.8019ZM99.1687 41.7616V38.1219H99.6438L102.088 41.7616H99.1687ZM90.3004 50.5172H82.8817L80.442 46.8775H86.6828L81.9779 42.4887H87.2242C88.4021 43.5008 89.5799 44.5041 90.7534 45.5008C91.6594 46.4046 92.1103 47.1074 92.1103 47.6002V48.6897C92.1103 49.1427 91.918 49.5582 91.5357 49.9449C91.1512 50.3272 90.7357 50.5195 90.3004 50.5195V50.5172ZM81.1624 41.7616V39.9318C81.1624 39.4501 81.3436 39.0236 81.7061 38.6656C82.0641 38.3032 82.4972 38.1219 82.9966 38.1219H89.6661L92.1103 41.7616H81.1624ZM74.9615 36.6524V33.7353H78.6255V36.6524H74.9615ZM74.9615 50.5172V38.1242H78.6255V50.5172H74.9615ZM71.5693 50.5172H64.1507L61.7109 46.8775H67.9517L63.2468 42.4887H68.4931C69.671 43.5008 70.8489 44.5041 72.0223 45.5008C72.9284 46.4046 73.3792 47.1074 73.3792 47.6002V48.6897C73.3792 49.1427 73.1869 49.5582 72.8046 49.9449C72.4201 50.3272 72.0046 50.5195 71.5693 50.5195V50.5172ZM62.4336 41.7616V39.9318C62.4336 39.4501 62.6148 39.0236 62.9772 38.6656C63.3352 38.3032 63.7684 38.1219 64.2678 38.1219H70.9372L73.3814 41.7616H62.4336Z" fill="white"/>
</svg>
