<svg width="16" height="16" viewBox="0 0 16 16" fill="none" xmlns="http://www.w3.org/2000/svg">
<path d="M14.9483 6.07872C14.8858 5.88655 14.7678 5.71718 14.6092 5.59195C14.4506 5.46671 14.2585 5.39122 14.0571 5.37497L10.3696 5.07747L8.9458 1.63435C8.86881 1.44673 8.73776 1.28625 8.56932 1.17331C8.40088 1.06037 8.20267 1.00006 7.99987 1.00006C7.79707 1.00006 7.59885 1.06037 7.43041 1.17331C7.26197 1.28625 7.13093 1.44673 7.05393 1.63435L5.63143 5.07685L1.94205 5.37497C1.74029 5.39204 1.54805 5.46826 1.38941 5.5941C1.23078 5.71994 1.11281 5.8898 1.05028 6.08238C0.987751 6.27497 0.983448 6.48173 1.03791 6.67675C1.09237 6.87178 1.20317 7.04639 1.35643 7.17872L4.16893 9.6056L3.31205 13.2344C3.26413 13.4315 3.27587 13.6384 3.34577 13.8289C3.41567 14.0193 3.54058 14.1847 3.70465 14.3041C3.86873 14.4234 4.06456 14.4913 4.26729 14.4992C4.47002 14.507 4.67051 14.4544 4.8433 14.3481L7.99955 12.4056L11.1577 14.3481C11.3305 14.4532 11.5306 14.5047 11.7327 14.4963C11.9348 14.4879 12.1299 14.4198 12.2934 14.3008C12.4569 14.1817 12.5816 14.0169 12.6516 13.8271C12.7217 13.6374 12.734 13.4311 12.6871 13.2344L11.8271 9.60497L14.6396 7.1781C14.7941 7.04599 14.9059 6.871 14.9608 6.67529C15.0158 6.47958 15.0114 6.27195 14.9483 6.07872Z" fill="#FFCC32"/>
</svg>
