<svg width="16" height="16" viewBox="0 0 16 16" fill="none" xmlns="http://www.w3.org/2000/svg">
<path d="M14.1734 4.31247C14.143 4.23751 14.095 4.17102 14.0333 4.11871C13.9716 4.0664 13.8982 4.02983 13.8193 4.01213C13.7404 3.99443 13.6584 3.99613 13.5803 4.01709C13.5022 4.03805 13.4303 4.07765 13.3709 4.13247L10.8521 6.45685L9.77523 6.2256L9.54398 5.14872L11.8684 2.62997C11.9232 2.57053 11.9628 2.49868 11.9837 2.42057C12.0047 2.34247 12.0064 2.26045 11.9887 2.18154C11.971 2.10264 11.9344 2.0292 11.8821 1.96753C11.8298 1.90586 11.7633 1.8578 11.6884 1.82747C11.0052 1.55112 10.2646 1.44678 9.53168 1.52361C8.79875 1.60045 8.09591 1.85611 7.48491 2.26813C6.87391 2.68016 6.37345 3.23593 6.0275 3.88663C5.68155 4.53733 5.50071 5.26303 5.50085 5.99997C5.50004 6.62227 5.62771 7.23804 5.87585 7.80872L2.11273 11.0625C2.10335 11.07 2.0946 11.0787 2.08585 11.0868C1.71074 11.462 1.5 11.9707 1.5 12.5012C1.5 12.7639 1.55174 13.024 1.65226 13.2667C1.75278 13.5094 1.90012 13.7299 2.08585 13.9156C2.27159 14.1013 2.4921 14.2487 2.73477 14.3492C2.97745 14.4497 3.23755 14.5015 3.50023 14.5015C4.03072 14.5015 4.53949 14.2907 4.9146 13.9156C4.92273 13.9075 4.93148 13.8981 4.93898 13.8893L8.1921 10.125C8.87737 10.4258 9.62685 10.5509 10.3727 10.4891C11.1185 10.4273 11.8371 10.1804 12.4635 9.77084C13.0899 9.36128 13.6042 8.80197 13.96 8.14354C14.3157 7.48511 14.5016 6.74836 14.5009 5.99997C14.5018 5.42159 14.3906 4.84851 14.1734 4.31247ZM10.0009 9.49997C9.40902 9.49916 8.82701 9.34866 8.30898 9.06247C8.20862 9.00703 8.09225 8.98776 7.97937 9.0079C7.8665 9.02804 7.76397 9.08637 7.68898 9.1731L4.19523 13.2193C4.00617 13.399 3.75442 13.4976 3.49365 13.4943C3.23289 13.4909 2.98375 13.3859 2.79935 13.2015C2.61495 13.0171 2.50988 12.7679 2.50654 12.5072C2.5032 12.2464 2.60186 11.9947 2.78148 11.8056L6.8246 8.31247C6.91149 8.23745 6.9699 8.13481 6.99005 8.02179C7.01019 7.90878 6.99084 7.79228 6.93523 7.69185C6.6165 7.11537 6.46692 6.46066 6.50369 5.80296C6.54045 5.14527 6.76208 4.5113 7.14308 3.97394C7.52408 3.43659 8.04899 3.01766 8.65746 2.76532C9.26593 2.51298 9.93326 2.43747 10.5827 2.54747L8.63273 4.6606C8.57847 4.71946 8.53914 4.79048 8.51804 4.8677C8.49694 4.94492 8.49469 5.02608 8.51148 5.10435L8.86523 6.74997C8.88546 6.84409 8.93244 6.93037 9.00051 6.99844C9.06858 7.06652 9.15486 7.11349 9.24898 7.13372L10.8959 7.48747C10.9741 7.50426 11.0553 7.50201 11.1325 7.48091C11.2097 7.45981 11.2807 7.42048 11.3396 7.36622L13.4527 5.41622C13.537 5.9181 13.5109 6.43231 13.3763 6.92308C13.2416 7.41386 13.0017 7.86941 12.6732 8.25807C12.3447 8.64673 11.9354 8.95915 11.4739 9.17362C11.0124 9.3881 10.5098 9.49946 10.0009 9.49997Z" fill="#FFCC32"/>
</svg>
